<?xml version="1.0" standalone="no"?>
<!DOCTYPE svg PUBLIC "-//W3C//DTD SVG 20010904//EN"
 "http://www.w3.org/TR/2001/REC-SVG-20010904/DTD/svg10.dtd">
<svg version="1.0" xmlns="http://www.w3.org/2000/svg"
 width="4096.000000pt" height="4096.000000pt" viewBox="0 0 4096.000000 4096.000000"
 preserveAspectRatio="xMidYMid meet">
<metadata>
Created by potrace 1.14, written by Peter Selinger 2001-2017
</metadata>
<g transform="translate(0.000000,4096.000000) scale(0.100000,-0.100000)"
fill="#000000" stroke="none">
<path d="M11149 31102 c-12 -2 -14 -186 -13 -1322 0 -726 4 -1323 8 -1328 4
-4 599 -7 1321 -7 722 0 1317 -4 1321 -8 5 -5 9 -602 9 -1328 l0 -1319 -25 -1
c-14 0 -609 0 -1322 -1 -969 0 -1298 -3 -1299 -12 -1 -6 -2 -603 -3 -1326 l-1
-1315 -1328 -3 c-1051 -2 -1327 -5 -1327 -15 -1 -6 -1 -605 -2 -1329 l-1
-1318 -1328 0 -1329 0 0 -3985 0 -3985 1325 0 1325 0 0 2651 c0 1458 2 2654 4
2657 2 4 600 7 1328 7 l1323 0 1 -2655 1 -2655 1329 0 1329 0 0 1325 0 1325
6640 0 6639 0 1 -1328 0 -1327 -2657 0 -2658 0 0 -312 c0 -377 0 -2272 0
-2311 l0 -27 2657 2 2658 3 0 1320 0 1320 1328 5 1328 5 2 2655 2 2655 1315 1
c723 0 1321 -2 1328 -4 9 -3 12 -544 12 -2658 l0 -2654 1329 0 1328 0 0 3980
c0 2857 -3 3980 -11 3983 -6 2 -604 3 -1328 3 l-1318 -1 0 1330 0 1330 -1329
-1 -1330 -1 0 1306 c0 718 -1 1316 -1 1328 l0 23 -1327 2 -1328 3 0 1322 c0
727 -4 1325 -8 1330 -13 12 -2636 10 -2640 -2 -2 -5 -3 -603 -3 -1328 l1
-1317 -35 -1 c-46 0 -7830 0 -7892 0 l-47 1 0 1223 c0 672 0 1269 -1 1327 l0
105 -1328 0 -1327 0 0 1327 c0 1174 -2 1328 -15 1329 -44 2 -2619 4 -2631 1z
m5301 -7984 c0 -31 1 -2435 0 -2536 l0 -112 -1327 2 -1328 3 0 1328 0 1327
1327 0 c1056 0 1328 -3 1328 -12z m10625 -1308 c1 -723 -1 -1320 -3 -1326 -2
-8 -357 -11 -1328 -12 -1218 0 -1324 2 -1325 17 -1 21 -1 2612 0 2629 1 10
270 12 1328 10 l1327 -3 1 -1315z"/>
<path d="M27079 31100 c-1 -3 -2 -601 -3 -1330 l-2 -1325 1328 0 1328 0 0 150
c2 1212 0 2498 -4 2502 -7 7 -2646 10 -2647 3z"/>
<path d="M13799 12498 c-1 -2 -2 -598 -3 -1325 l-2 -1323 2658 0 2658 0 0
1325 0 1325 -2655 0 c-1460 0 -2656 -1 -2656 -2z"/>
</g>
</svg>
